<?xml version="1.0" encoding="utf-8"?>
<!-- Generator: Adobe Illustrator 25.0.0, SVG Export Plug-In . SVG Version: 6.00 Build 0)  -->
<svg version="1.1" id="Capa_1" xmlns="http://www.w3.org/2000/svg" xmlns:xlink="http://www.w3.org/1999/xlink" x="0px" y="0px"
	 viewBox="0 0 749.62 208.34" style="enable-background:new 0 0 749.62 208.34;" xml:space="preserve">
<style type="text/css">
	.st0{fill:#0071A7;}
	.st1{fill:#8CC63F;}
	.st2{fill:#FFFFFF;}
	.st3{fill:#666666;}
	.st4{fill:#00598A;}
	.st5{fill:#95C11F;}
	.st6{font-family:'SairaSemiCondensed-Light';}
	.st7{font-size:106.6759px;}
	.st8{letter-spacing:-2;}
	.st9{font-family:'SairaSemiCondensed-Bold';}
	.st10{font-size:115.2635px;}
	.st11{letter-spacing:-3;}
</style>
<g>
	<circle class="st4" cx="111.1" cy="109.18" r="58.05"/>
	<circle class="st5" cx="51.48" cy="109.18" r="13.45"/>
	<circle class="st5" cx="69.3" cy="67.1" r="13.45"/>
	<circle class="st5" cx="151.02" cy="150.42" r="13.45"/>
	<circle class="st5" cx="111.1" cy="50.87" r="13.45"/>
	<circle class="st5" cx="111.1" cy="167.49" r="13.45"/>
	<circle class="st5" cx="152.25" cy="67.1" r="13.45"/>
	<circle class="st5" cx="68.56" cy="150.42" r="13.45"/>
	<circle class="st0" cx="168.1" cy="109.55" r="13.45"/>
	
		<rect x="136.34" y="57.8" transform="matrix(6.123234e-17 -1 1 6.123234e-17 41.1118 260.206)" class="st2" width="28.64" height="103.5"/>
	<path class="st2" d="M70.79,153.3l-4.73-4.73l82.46-82.46c1.24-1.24,3.24-1.24,4.48,0l0.25,0.25c1.24,1.24,1.24,3.24,0,4.48
		L70.79,153.3z"/>
	<circle class="st2" cx="152.25" cy="67.1" r="6.43"/>
	<circle class="st2" cx="68.93" cy="150.41" r="6.43"/>
	<circle class="st2" cx="111.1" cy="51.13" r="6.43"/>
	<circle class="st2" cx="111.1" cy="167.49" r="6.43"/>
	<circle class="st2" cx="69.3" cy="67.1" r="6.43"/>
	<circle class="st2" cx="151.02" cy="150.42" r="6.43"/>
	<circle class="st2" cx="51.48" cy="109.18" r="6.43"/>
	<path class="st2" d="M114.45,169.08h-6.7V52.46c0-1.75,1.42-3.17,3.17-3.17h0.36c1.75,0,3.17,1.42,3.17,3.17V169.08z"/>
	<path class="st2" d="M155.5,148.56l-4.73,4.73L68.3,70.83c-1.24-1.24-1.24-3.24,0-4.48l0.25-0.25c1.24-1.24,3.24-1.24,4.48,0
		L155.5,148.56z"/>
	<path class="st2" d="M119.49,105.83v6.7H52.8c-1.75,0-3.17-1.42-3.17-3.17V109c0-1.75,1.42-3.17,3.17-3.17H119.49z"/>
	<circle class="st2" cx="111.1" cy="109.18" r="32.98"/>
	<circle class="st4" cx="111.1" cy="109.18" r="13.45"/>
	
		<rect x="159.31" y="71.52" transform="matrix(1.142892e-06 -1 1 1.142892e-06 52.5578 271.6519)" class="st4" width="5.59" height="76.05"/>
</g>
<text transform="matrix(1 0 0 1 185.5463 142.5502)" class="st4 st6 st7 st8">Rolling</text>
<text transform="matrix(1 0 0 1 472.3998 142.5502)" class="st5 st9 st10 st11">TECH</text>
</svg>
